# xmcd
#
# Track frame offsets: 
#        150
#        17025
#        36895
#        55224
#        76393
#        93629
#        107863
#        124021
#        141024
#        158980
#        176830
#        195583
#        216035
#
# Disc length: 3168 seconds
#
# Revision: 0
# Processed by: cddbd v1.5.2PL0 Copyright (c) Steve Scherf et al.
# Submitted via: ExactAudioCopy v0.99pb5
#
DISCID=b30c5e0d
DTITLE=Neo's Dream - promotional
DYEAR=2009
DGENRE=Acoustic
TTITLE0=neos dream - promotional - 01 - the song of love
TTITLE1=neos dream - promotional - 02 - magical potion
TTITLE2=neos dream - promotional - 03 - tiny pieces
TTITLE3=neos dream - promotional - 04 - that song we know
TTITLE4=neos dream - promotional - 05 - just a show
TTITLE5=neos dream - promotional - 06 - crasy days
TTITLE6=neos dream - promotional - 07 - wandering through
TTITLE7=neos dream - promotional - 08 - i looked at the moon
TTITLE8=neos dream - promotional - 09 - what do i know
TTITLE9=neos dream - promotional -10 - give the world a holiday
TTITLE10=neos dream - promotional -11 - hoe do you like you
TTITLE11=neos dream - promotional - 12 - is there somebody
TTITLE12=neos dream - promotional - 13 - spaceman
EXTD=
EXTT0=
EXTT1=
EXTT2=
EXTT3=
EXTT4=
EXTT5=
EXTT6=
EXTT7=
EXTT8=
EXTT9=
EXTT10=
EXTT11=
EXTT12=
PLAYORDER=
